/vscmnt/brussel_pixiu_data/_data_brussel/112/vsc11236/PredSimResults/SUBJ04opt3D/expIG/worker_09.mot
version=1
nRows=8
nColumns=50
inDegrees=yes
endheader
                time	         pelvis_tilt	         pelvis_list	     pelvis_rotation	           pelvis_tx	           pelvis_ty	           pelvis_tz	       hip_flexion_r	     hip_adduction_r	      hip_rotation_r	        knee_angle_r	       ankle_angle_r	         mtp_angle_r	       hip_flexion_l	     hip_adduction_l	      hip_rotation_l	        knee_angle_l	       ankle_angle_l	         mtp_angle_l	    lumbar_extension	      lumbar_bending	     lumbar_rotation	 ercspn_r/activation	 intobl_r/activation	 extobl_r/activation	    abd_r/activation	    add_r/activation	hamstrings_r/activation	bifemsh_r/activation	glut_max_r/activation	iliopsoas_r/activation	rect_fem_r/activation	  vasti_r/activation	gastroc_r/activation	 soleus_r/activation	tib_ant_r/activation	 ercspn_l/activation	 intobl_l/activation	 extobl_l/activation	    abd_l/activation	    add_l/activation	hamstrings_l/activation	bifemsh_l/activation	glut_max_l/activation	iliopsoas_l/activation	rect_fem_l/activation	  vasti_l/activation	gastroc_l/activation	 soleus_l/activation	tib_ant_l/activation	
          0.00000000	         -4.73463376	          0.07486433	          7.84136116	          0.00000000	          0.86949475	         -0.00661481	         34.09568294	         -2.64055957	         -7.14260019	        -11.16271141	          6.84809639	          0.26157563	        -14.78405429	         -0.48550030	         -5.06975741	         -9.58078561	          7.07237194	         32.61021342	        -12.91668010	         -1.18067018	         -9.87368202	          0.10003570	          0.17992533	          0.01000024	          0.02348199	          0.35444501	          0.08103963	          0.05622938	          0.01000066	          0.14246092	          0.02263483	          0.02875515	          0.01000158	          0.01000099	          0.39948041	          0.01567105	          0.01000006	          0.01000011	          0.03575088	          0.01000070	          0.02732848	          0.26277900	          0.01382522	          0.16900936	          0.01000029	          0.01000014	          0.29872962	          0.27049547	          0.01175793	
          0.01054802	         -4.76747695	          0.04139090	          7.68393303	          0.01826264	          0.86724677	         -0.00633150	         34.04447949	         -2.36178923	         -7.25644449	        -12.76018104	          6.48382751	          0.26333837	        -15.19420992	         -0.68744907	         -5.62316631	        -10.93322798	          6.19494951	         34.44405349	        -12.46565731	         -0.70071158	        -10.08970547	          0.08507890	          0.15302373	          0.01000015	          0.01997108	          0.40319272	          0.06993208	          0.04782240	          0.17284656	          0.12116082	          0.01925060	          0.05899378	          0.01382202	          0.01625586	          0.39841905	          0.12235865	          0.01000011	          0.01000007	          0.03040557	          0.01043562	          0.04604177	          0.22348959	          0.01175821	          0.15092171	          0.01000024	          0.01000014	          0.25406493	          0.24095607	          0.01000001	
          0.02109604	         -4.78295492	         -0.05673313	          7.50333622	          0.03682958	          0.86509654	         -0.00603102	         33.78465366	         -2.11291651	         -7.17760797	        -14.33406548	          6.14339840	          0.23571680	        -15.42673241	         -0.98220670	         -6.19588029	        -12.66215626	          5.26653200	         36.20608075	        -11.98656384	         -0.14298077	        -10.25836755	          0.07235848	          0.13014434	          0.01000020	          0.10430354	          0.34601381	          0.07541411	          0.04067243	          0.14702132	          0.10304541	          0.01637236	          0.09598440	          0.01175842	          0.01382543	          0.45327883	          0.10406428	          0.01000005	          0.01000009	          0.02585947	          0.01000074	          0.03916353	          0.19007453	          0.01000023	          0.22352845	          0.01000014	          0.01000007	          0.21607830	          0.20492944	          0.01000001	
          0.03164406	         -4.78592834	         -0.19081345	          7.29015374	          0.05542149	          0.86323275	         -0.00561585	         33.38666831	         -1.82608682	         -7.14657102	        -15.65374793	          5.63672585	          0.22017627	        -15.38249364	         -1.35285608	         -6.78141798	        -14.90172889	          4.25194891	         37.82494469	        -11.51740123	          0.44848029	        -10.37383087	          0.06989515	          0.11068577	          0.01000011	          0.14334276	          0.29907507	          0.07268064	          0.03459150	          0.12923250	          0.08763853	          0.01392447	          0.17912399	          0.01000045	          0.01175833	          0.50237525	          0.10980199	          0.01000003	          0.01000006	          0.02199308	          0.01000034	          0.03331090	          0.16165552	          0.01000003	          0.20836591	          0.01000013	          0.01000003	          0.18377126	          0.17428933	          0.01000001	
          0.04219208	         -4.77860452	         -0.35541241	          7.04673377	          0.07379440	          0.86182514	         -0.00507999	         32.92706277	         -1.49562136	         -7.14245538	        -16.85580878	          5.18324139	          0.18462638	        -14.99179891	         -1.80523094	         -7.37836865	        -17.72706205	          3.10581439	         39.18905201	        -11.08911240	          1.06683650	        -10.43368730	          0.05944510	          0.09413654	          0.01000020	          0.19308374	          0.26831607	          0.07110432	          0.02941972	          0.10991060	          0.07453522	          0.01184258	          0.28999057	          0.01000042	          0.01000037	          0.52876563	          0.15777760	          0.01000012	          0.01000006	          0.01870478	          0.02090262	          0.05146066	          0.13748558	          0.01000005	          0.17721216	          0.01000007	          0.01000002	          0.15629462	          0.14823039	          0.01000003	
          0.05274010	         -4.76450833	         -0.55289322	          6.78329377	          0.09176574	          0.86106741	         -0.00443577	         32.40720440	         -1.11729649	         -7.13862830	        -17.96862676	          5.02826494	          0.14685600	        -14.20732369	         -2.35536815	         -7.99001606	        -21.17591991	          1.84429603	         39.98701139	        -10.72007084	          1.71186836	        -10.44411086	          0.05055726	          0.08006168	          0.01000013	          0.23066585	          0.22820144	          0.06818548	          0.02502115	          0.10991640	          0.06339106	          0.01007201	          0.38303405	          0.01000155	          0.01068180	          0.53344694	          0.20179233	          0.01000009	          0.01000007	          0.01590813	          0.07853013	          0.04376803	          0.11692941	          0.01000002	          0.15071631	          0.01000006	          0.01000001	          0.13292616	          0.12606766	          0.01000020	
          0.06328812	         -4.74751762	         -0.76719399	          6.49809511	          0.10918328	          0.86114601	         -0.00369886	         31.79886678	         -0.69991150	         -7.11455650	        -18.90932458	          5.13087490	          0.11721677	        -12.99748461	         -2.99800124	         -8.62039138	        -25.26800076	          0.50583983	         39.82040177	        -10.42679690	          2.36275518	        -10.40273241	          0.04299823	          0.06809123	          0.01000015	          0.25167637	          0.22954648	          0.07040669	          0.02128027	          0.09348279	          0.05391312	          0.01000018	          0.42494797	          0.01000047	          0.01000042	          0.52026970	          0.20811371	          0.01000011	          0.01000008	          0.01352962	          0.22472869	          0.03722476	          0.09944671	          0.01000002	          0.12818196	          0.01000006	          0.01000001	          0.11305165	          0.10721860	          0.05956905	
          0.07383614	         -4.73015782	         -0.96884196	          6.18920299	          0.12596192	          0.86207173	         -0.00291155	         31.07640706	         -0.27277388	         -7.06349092	        -19.61201222	          5.43909983	          0.09863403	        -11.37348853	         -3.70760071	         -9.26743735	        -29.96190122	         -0.82562970	         38.30907044	        -10.21900167	          2.98797228	        -10.30707625	          0.03656936	          0.05791055	          0.01000018	          0.27020282	          0.23056005	          0.07556636	          0.01809875	          0.07950591	          0.04585228	          0.01000019	          0.43364434	          0.01000032	          0.01000015	          0.47954370	          0.22040203	          0.01000019	          0.01000008	          0.01150674	          0.30611663	          0.03165954	          0.08457793	          0.01000002	          0.10901682	          0.01000007	          0.01000001	          0.09614868	          0.09118777	          0.13726282	
